<svg xmlns="http://www.w3.org/2000/svg" width="116.87" height="70.021" viewBox="0 0 116.87 70.021"><g transform="translate(0)"><path d="M46.93,25.964c-8.082,7.825-16.662,13.418-22.888,15.529a29.286,29.286,0,0,1-9.627,1.8c-5.406,0-9.215-.824-11.275-2.419C1.03,39.279,0,37.633,0,35.522a8.207,8.207,0,0,1,1.133-4.27c1.646-3.089,6.229-5.2,9.317-6.487s8.289-3.089,17.5-3.089c4.53,0,13.746.618,19,1.854,1.081-1.14,3.245-3.4,5.354-5.618s3.809-3.957,5.046-5.248a90.619,90.619,0,0,1,8.8-8.186C69.962,1.493,73.514,0,76.706,0a10.908,10.908,0,0,1,3.965.67,7.763,7.763,0,0,1,2.162,1.081c.257.257.36.417.36.463s-.051.1-.1.208c-.1.1-.208.052-.36-.154-.771-.724-2.213-1.084-4.426-1.084-3.707,0-7.62,1.6-11.738,4.839-2.935,2.419-5.406,4.582-7.362,6.538s-4.016,4.061-6.127,6.281-4.067,4.324-4.79,5.1a50.09,50.09,0,0,0,6.854.853M19.356,25.946c-10.088,1.859-16.01,7.1-15.341,11.326a6.544,6.544,0,0,0,2.214,3.5c1.338.978,3.6,1.493,6.846,1.493a38.389,38.389,0,0,0,10.554-1.6c5.663-1.751,13.077-7.1,20.9-14.774C43.347,25.792,31.971,23.578,19.356,25.946ZM60.027,45.822c.1.051.1.1.1.257-.1.257-.257.36-.463.154-3.451-2.422-5.2-6.027-5.2-10.711a19.358,19.358,0,0,1,1.184-6.281,38.677,38.677,0,0,1,4.166-7.98,82.639,82.639,0,0,1,5.824-8.082c1.854-2.265,3.706-4.374,5.4-6.384,1.751-1.956,2.626-3.037,2.73-3.192.462-.721.823-.618.978.258a5.652,5.652,0,0,1,.051.978,1.7,1.7,0,0,1-.312.978,92.446,92.446,0,0,0-7.208,10.3,87.582,87.582,0,0,0-8.339,17.658,23.467,23.467,0,0,0-.978,6.59A7.88,7.88,0,0,0,60.027,45.822Z" transform="translate(0 0)" fill="#cea900"/><path d="M448.766,214.046c7.511-1,10.19-4.76,14.972-1.465,10.016,6.85,4.653,25.783,1.486,34.83,5.557-11.631,12.407-23.715,21.974-32.568,1.551-.646-2.456,4.911-2.649,5.3-1.551,3.228-1.292,7.561-1.163,10.985.258,7.367,1.938,14.863,1.1,22.229,5.363-7.69,13.5-13.182,18.157-21.453,2.133-3.813,4.007-8.659,3.3-13.122-.258-1.551-.258-3.49-2.068-4.071-1.875-.581-3.228,3.166-3.812,2.778s5.815-11.308,9.563-2.908c2.714,6.009-1.422,14.668-5.3,19.058-7.367,8.4-7.367,8.4-11.89,12.924-1.813,2.012-11.893,17-11.893,10.541.387-5.88-.324-11.761-.776-17.64-.387-4.718-1.68-11.247.711-15.573a154.153,154.153,0,0,0-16.22,28.37c-.775,1.81-4.329,11.179-3.877,4.847.324-5.428,3.813-11.307,4.588-16.865,1.1-7.624,2.972-22.681-6.2-25.911-4.2-1.486-5.3,4.412-19.383.892" transform="translate(-393.623 -189.254)" fill="#cea900"/></g></svg>