<svg xmlns="http://www.w3.org/2000/svg" width="643.419" height="130.926" viewBox="0 0 643.419 130.926"><path d="M25.709,57.178c7.008-2.92,18.8-7.008,39.71-7.008,10.278,0,31.184,1.4,43.1,4.2,2.453-2.569,7.358-7.708,12.147-12.731s8.643-8.993,11.446-11.913q12.263-12.614,19.972-18.57C160.723,4.387,168.782,1,176.023,1a24.644,24.644,0,0,1,8.993,1.518q4.029,1.577,4.905,2.453c.584.584.818.934.818,1.051s-.117.234-.234.467c-.234.234-.467.117-.818-.35-1.752-1.635-5.022-2.453-10.044-2.453-8.409,0-17.286,3.621-26.629,10.979-6.657,5.489-12.263,10.395-16.7,14.833s-9.11,9.227-13.9,14.249-9.227,9.811-10.862,11.563c3.737,1.168,10.511,4.672,11.563,6.307,1.985,3.037,3.037,10.278,3.037,10.278-.584-2.569-6.657-9.694-19.855-11.563C87.96,78.084,70.675,90.347,56.543,95.136A66.435,66.435,0,0,1,34.7,99.224c-12.263,0-20.906-1.869-25.578-5.489C4.336,90.114,2,86.376,2,81.588a18.7,18.7,0,0,1,2.569-9.694C8.307,64.886,18.7,60.1,25.709,57.178Zm20.205,2.686c-22.892,4.2-36.323,16.118-34.8,25.695A14.857,14.857,0,0,0,16.132,93.5c3.037,2.219,8.176,3.387,15.534,3.387a87.082,87.082,0,0,0,23.943-3.621C68.456,89.3,85.274,77.15,103.027,59.747,100.341,59.514,74.529,54.492,45.915,59.864Zm92.267,45.083c.234.117.234.234.234.584-.234.584-.584.818-1.051.35-7.825-5.489-11.8-13.665-11.8-24.293a43.648,43.648,0,0,1,2.686-14.249c1.752-5.022,4.905-11.1,9.46-18.1a188.216,188.216,0,0,1,13.2-18.337c4.2-5.139,8.409-9.927,12.263-14.482,3.971-4.438,5.956-6.891,6.19-7.241,1.051-1.635,1.869-1.4,2.219.584a12.717,12.717,0,0,1,.117,2.219A3.845,3.845,0,0,1,171,14.2,209.82,209.82,0,0,0,154.65,37.557c-8.76,14.716-15.066,28.031-18.921,40.06a53.223,53.223,0,0,0-2.219,14.95C133.627,97.589,135.145,101.793,138.182,104.947Z" transform="translate(-2 -1)" fill="#cea900"/><path d="M166.071,80.394c.234-.234.35-.117.7.117a.846.846,0,0,1,.234.934A33.9,33.9,0,0,1,161.4,87.4a9.786,9.786,0,0,1-6.307,2.569,4.521,4.521,0,0,1-3.621-1.518,6.226,6.226,0,0,1-1.285-3.971A33.9,33.9,0,0,1,151.939,74.2a82,82,0,0,1,4.555-11.329,5.456,5.456,0,0,0,.35-1.985c0-.934-.35-1.4-1.168-1.4-3.387,0-7.008,2.336-11.1,6.891s-7.825,11.8-11.329,21.84a1.587,1.587,0,0,1-.934.7,15.28,15.28,0,0,1-1.752.584c-.584.117-1.285.234-1.869.35a7.752,7.752,0,0,1-1.518.117,2.332,2.332,0,0,1-1.051-.234c-.234-.234-.234-.467-.117-.934,1.518-3.854,3.153-8.176,4.672-12.847,1.635-4.672,2.92-9.344,4.088-14.015a2.988,2.988,0,0,0,.117-1.986,1.04,1.04,0,0,0-.934-.584,3.925,3.925,0,0,0-2.8,1.285,14.091,14.091,0,0,0-2.453,2.8c-.234.234-.818.467-1.051.234s0-.818.117-1.168a23.628,23.628,0,0,1,1.869-2.219,17.535,17.535,0,0,1,2.686-2.336,12.472,12.472,0,0,1,3.153-1.869,8.244,8.244,0,0,1,3.27-.7c1.518,0,2.569.467,3.037,1.4a5.659,5.659,0,0,1,.35,3.5q-.7,2.978-1.4,5.606c-.467,1.752-1.168,3.737-1.869,5.956a43.989,43.989,0,0,1,3.971-5.956,37.245,37.245,0,0,1,5.256-5.256,29.48,29.48,0,0,1,6.307-3.854,18.609,18.609,0,0,1,7.241-1.4,3.775,3.775,0,0,1,2.569.818,2.633,2.633,0,0,1,.934,1.869,6.386,6.386,0,0,1-.934,3.387A72.2,72.2,0,0,0,159.414,72.1a30.461,30.461,0,0,0-1.985,9.811c0,2.336.818,3.5,2.336,3.5a4.747,4.747,0,0,0,3.037-1.168C163.619,83.2,164.787,82.029,166.071,80.394Z" transform="translate(18.814 8.136)" fill="#cea900"/><path d="M192.66,58.219c.467.234.584.467.584.7-.117.35-.467.584-1.168.7-1.4,0-2.92,0-4.672.117s-3.621.234-5.606.35a106.607,106.607,0,0,0-4.438,12.964,40,40,0,0,0-1.752,10.278c0,3.037,1.168,4.672,3.5,4.672s5.022-1.985,7.825-6.073a.438.438,0,0,1,.7,0,.846.846,0,0,1,.234.934,22.416,22.416,0,0,1-5.84,6.54,11.182,11.182,0,0,1-6.891,2.8,7.138,7.138,0,0,1-5.256-1.752,6.254,6.254,0,0,1-1.752-4.672A42.791,42.791,0,0,1,170,74.921a119.677,119.677,0,0,1,4.905-14.132,51.1,51.1,0,0,0-6.54,1.051q-.7-.175-.35-.7a5.415,5.415,0,0,1,1.168-1.168,8.832,8.832,0,0,1,2.1-1.051,5.94,5.94,0,0,1,2.336-.467h1.051a3.233,3.233,0,0,0,1.051-.117c1.168-2.569,2.453-5.139,3.621-7.592q1.927-3.679,3.854-6.657a12.248,12.248,0,0,1,2.219-1.752,14.289,14.289,0,0,1,2.8-1.168,10.808,10.808,0,0,1,2.219-.467c.584,0,.818.117.7.467-1.518,2.336-3.037,5.022-4.555,7.825-1.518,2.92-2.92,5.956-4.321,9.11,1.752-.117,3.5-.117,5.256-.117A41.422,41.422,0,0,0,192.66,58.219Z" transform="translate(25.861 5.667)" fill="#cea900"/><path d="M189.9,94.9a318.3,318.3,0,0,1,14.015-42.163c5.256-12.5,11.679-22.424,17.753-27.213s11.8-7.124,17.169-7.124a8.394,8.394,0,0,1,5.373,1.518,8.019,8.019,0,0,1,2.686,3.854,9.47,9.47,0,0,1,.234,4.789,9.106,9.106,0,0,1-1.518,3.971c-.234.234-1.285,1.4-1.752,1.518,0,0,.234-1.986.234-2.336.467-5.139-.934-7.825-3.037-8.876-7.008-3.737-23.826,9.811-29.2,23.008-4.088,10.044-6.424,18.453-10.511,33.4a47.561,47.561,0,0,1,4.672-6.891,37.857,37.857,0,0,1,5.723-5.723,27.393,27.393,0,0,1,6.657-3.854,19.629,19.629,0,0,1,7.358-1.4,2.64,2.64,0,0,1,3.037,2.686,8.375,8.375,0,0,1-1.168,3.971,73.363,73.363,0,0,0-4.672,10.278,31.028,31.028,0,0,0-1.752,9.694,11.754,11.754,0,0,0,.35,3.153,1.484,1.484,0,0,0,1.518,1.168,5.023,5.023,0,0,0,3.037-1.4,13.755,13.755,0,0,0,2.686-3.153.577.577,0,0,1,.818.117c.234.234.35.467.234.7a17.369,17.369,0,0,1-4.905,5.256,10.444,10.444,0,0,1-5.723,2.336,6.125,6.125,0,0,1-3.854-1.285c-1.051-.818-1.518-2.336-1.518-4.438a28.288,28.288,0,0,1,.467-5.256c.35-1.869.7-3.737,1.168-5.489a47.962,47.962,0,0,1,1.752-5.373,36.651,36.651,0,0,1,2.219-4.789,6.824,6.824,0,0,0,.7-2.336c0-.818-.467-1.168-1.4-1.168a10.551,10.551,0,0,0-5.606,1.985,23.723,23.723,0,0,0-5.84,5.606,58.232,58.232,0,0,0-5.489,8.643,68.739,68.739,0,0,0-4.555,11.1,4.1,4.1,0,0,1-2.219,1.869,10.076,10.076,0,0,1-4.2.934A.984.984,0,0,1,189.9,94.9Z" transform="translate(29.553 1.922)" fill="#cea900"/><path d="M250.605,55.2q4.73,0,7.008,2.8a10.276,10.276,0,0,1,2.336,6.657,23.126,23.126,0,0,1-2.1,9.811,35.182,35.182,0,0,1-5.139,8.059,25.984,25.984,0,0,1-6.54,5.489A13.535,13.535,0,0,1,239.743,90a8.813,8.813,0,0,1-7.008-2.8,10.291,10.291,0,0,1-2.336-7.124,22.514,22.514,0,0,1,1.752-8.292,33.775,33.775,0,0,1,4.438-8.059,26.356,26.356,0,0,1,6.424-6.073A12.758,12.758,0,0,1,250.605,55.2Zm-7.475,30.483c2.8,0,5.139-1.518,7.124-4.438s2.92-7.008,2.92-12.147a13.212,13.212,0,0,0-1.635-6.774,5.089,5.089,0,0,0-4.789-2.686q-4.38,0-7.008,4.2c-1.869,2.8-2.686,6.891-2.686,12.38,0,3.153.584,5.606,1.752,7.124A5.131,5.131,0,0,0,243.131,85.683Z" transform="translate(36.358 8.102)" fill="#cea900"/><path d="M301.271,80.394c.234-.234.35-.117.7.117a.846.846,0,0,1,.234.934A33.9,33.9,0,0,1,296.6,87.4a9.786,9.786,0,0,1-6.307,2.569,4.521,4.521,0,0,1-3.621-1.518,6.226,6.226,0,0,1-1.285-3.971A33.9,33.9,0,0,1,287.139,74.2a82,82,0,0,1,4.555-11.329,5.455,5.455,0,0,0,.35-1.985c0-.934-.35-1.4-1.168-1.4-3.387,0-7.008,2.336-11.1,6.891s-7.825,11.8-11.329,21.84a1.588,1.588,0,0,1-.934.7,15.284,15.284,0,0,1-1.752.584c-.584.117-1.285.234-1.869.35a7.752,7.752,0,0,1-1.518.117,2.332,2.332,0,0,1-1.051-.234c-.234-.234-.234-.467-.117-.934,1.518-3.854,3.153-8.176,4.672-12.847,1.635-4.672,2.92-9.344,4.088-14.015a2.988,2.988,0,0,0,.117-1.986,1.04,1.04,0,0,0-.934-.584,3.925,3.925,0,0,0-2.8,1.285,14.092,14.092,0,0,0-2.453,2.8c-.234.234-.467.117-.7-.117a.774.774,0,0,1-.234-.818,23.627,23.627,0,0,1,1.869-2.219,17.534,17.534,0,0,1,2.686-2.336,12.471,12.471,0,0,1,3.153-1.869,8.244,8.244,0,0,1,3.27-.7c1.518,0,2.569.467,3.037,1.4a5.659,5.659,0,0,1,.35,3.5q-.7,2.978-1.4,5.606c-.467,1.752-1.168,3.737-1.869,5.956a43.986,43.986,0,0,1,3.971-5.956,37.245,37.245,0,0,1,5.256-5.256,29.481,29.481,0,0,1,6.307-3.854,18.609,18.609,0,0,1,7.241-1.4,3.775,3.775,0,0,1,2.57.818,2.633,2.633,0,0,1,.934,1.869,6.386,6.386,0,0,1-.934,3.387A72.2,72.2,0,0,0,294.614,72.1a30.46,30.46,0,0,0-1.986,9.811c0,2.336.818,3.5,2.336,3.5A4.747,4.747,0,0,0,298,84.248C298.936,83.2,299.987,82.029,301.271,80.394Z" transform="translate(41.519 8.136)" fill="#cea900"/><path d="M336.981,59.088c.35-.934,1.4-1.752,3.037-2.686a9.949,9.949,0,0,1,4.321-1.285c.818,0,1.168.35.934.934-1.986,5.606-3.971,11.1-5.957,16.351s-3.971,10.745-6.073,16.351c-4.555,11.679-10.161,20.322-16.935,25.811s-13.9,8.292-21.49,8.292c-5.256,0-9.344-1.168-12.38-3.621A10.892,10.892,0,0,1,278,110.36a10.335,10.335,0,0,1,1.986-5.84,11.723,11.723,0,0,1,5.606-4.088.722.722,0,0,1,.818.234.565.565,0,0,1,0,.818,8.42,8.42,0,0,0-2.219,5.84,12.414,12.414,0,0,0,3.5,9.227q3.5,3.5,10.161,3.5a22.776,22.776,0,0,0,8.643-1.518,20.49,20.49,0,0,0,7.358-5.256,49.383,49.383,0,0,0,6.774-10.161,116.681,116.681,0,0,0,6.657-16c1.051-3.037,2.1-5.606,2.92-8.059.818-2.336,1.752-4.905,2.686-7.708-1.752,2.686-3.5,5.256-5.256,7.475a53.52,53.52,0,0,1-5.489,5.84,29.069,29.069,0,0,1-5.373,3.854,10.088,10.088,0,0,1-4.789,1.4,4.7,4.7,0,0,1-3.971-1.635,7.156,7.156,0,0,1-1.168-4.438,38.444,38.444,0,0,1,1.986-10.979,60.238,60.238,0,0,1,5.372-11.913,26.84,26.84,0,0,0-2.686,1.752,18.2,18.2,0,0,0-2.336,1.869c-.234.234-.467.117-.7-.234a.914.914,0,0,1-.117-.934,31.529,31.529,0,0,1,2.57-2.1,25.664,25.664,0,0,1,3.5-2.219c1.285-.7,2.57-1.4,3.854-2.219A29.13,29.13,0,0,1,322.148,55c.934,0,1.285.35,1.051,1.168a44.858,44.858,0,0,0-3.854,6.073,54.947,54.947,0,0,0-2.92,6.657,50.636,50.636,0,0,0-1.869,6.54,37.9,37.9,0,0,0-.584,5.84q0,3.854,2.453,3.854c1.4,0,3.153-.934,5.139-2.686a50.211,50.211,0,0,0,5.956-6.774,88.838,88.838,0,0,0,5.489-8.526A46.465,46.465,0,0,0,336.981,59.088Z" transform="translate(44.352 8.069)" fill="#cea900"/><g transform="translate(405.941 9.366)"><path d="M442.01,95.1a318.3,318.3,0,0,1,14.015-42.163c5.256-12.5,11.679-22.424,17.753-27.213s11.8-7.124,17.169-7.124a8.394,8.394,0,0,1,5.373,1.518,8.019,8.019,0,0,1,2.686,3.854,9.471,9.471,0,0,1,.234,4.789,9.106,9.106,0,0,1-1.518,3.971c-.234.234-1.285,1.4-1.752,1.518,0,0,.234-1.986.234-2.336.467-5.139-.934-7.825-3.037-8.876-7.008-3.737-23.826,9.811-29.2,23.008-4.088,10.044-6.424,18.453-10.511,33.4a47.566,47.566,0,0,1,4.672-6.891,37.86,37.86,0,0,1,5.723-5.723,27.394,27.394,0,0,1,6.657-3.854,19.629,19.629,0,0,1,7.358-1.4,2.64,2.64,0,0,1,3.037,2.686,8.374,8.374,0,0,1-1.168,3.971,73.359,73.359,0,0,0-4.672,10.278,31.028,31.028,0,0,0-1.752,9.694,11.755,11.755,0,0,0,.35,3.153,1.484,1.484,0,0,0,1.518,1.168,5.023,5.023,0,0,0,3.037-1.4,13.755,13.755,0,0,0,2.686-3.153.577.577,0,0,1,.818.117c.234.234.35.467.234.7a17.369,17.369,0,0,1-4.905,5.256,10.444,10.444,0,0,1-5.723,2.336,6.125,6.125,0,0,1-3.854-1.285c-1.051-.818-1.518-2.336-1.518-4.438a28.289,28.289,0,0,1,.467-5.256c.35-1.869.7-3.737,1.168-5.489a47.963,47.963,0,0,1,1.752-5.373,36.655,36.655,0,0,1,2.219-4.789,6.824,6.824,0,0,0,.7-2.336c0-.818-.467-1.168-1.4-1.168a10.551,10.551,0,0,0-5.606,1.985,23.723,23.723,0,0,0-5.84,5.606,58.235,58.235,0,0,0-5.489,8.643,68.742,68.742,0,0,0-4.555,11.1,4.1,4.1,0,0,1-2.219,1.869,10.075,10.075,0,0,1-4.2.934C442.127,96.268,441.777,95.918,442.01,95.1Z" transform="translate(-334.057 -7.411)" fill="#cea900"/><path d="M416.528,93.205c.7-10.628-.584-21.257-1.4-31.885-.7-8.526-3.037-20.322,1.285-28.147A278.52,278.52,0,0,0,387.1,84.446c-1.4,3.27-7.825,20.205-7.008,8.76.584-9.811,6.891-20.439,8.292-30.483,1.986-13.782,5.373-40.995-11.212-46.834-7.592-2.686-13.2-.584-17.753,2.92-5.373,4.2-9.46,17.753-9.577,17.519-.818-2.336.467-8.409.7-9.344,1.986-6.073,2.8-7.241,7.708-11.913,7.124-6.774,19.271-8.292,27.914-2.336,18.1,12.38,8.409,46.6,2.686,62.952,10.044-21.023,22.424-42.863,39.71-58.864,2.8-1.168-4.438,8.876-4.789,9.577-2.8,5.84-2.336,13.665-2.1,19.855.467,13.315,3.5,26.863,1.986,40.177,9.694-13.9,24.41-23.826,32.819-38.776,3.854-6.891,7.241-15.65,5.957-23.709-.467-2.8-.467-6.307-3.737-7.358-3.387-1.051-5.84,5.723-6.891,5.022s10.512-20.439,17.286-5.256c4.905,10.862-2.569,26.512-9.577,34.454-13.315,15.183-13.315,15.183-21.49,23.359C434.748,77.788,416.528,104.885,416.528,93.205Z" transform="translate(-349.57 -9.02)" fill="#cea900"/><path d="M486.486,67.739c-.234.234-.467.117-.7-.234a.915.915,0,0,1-.117-.934,78.7,78.7,0,0,1,14.015-8.409c.7,0,1.051.35,1.051,1.168-1.168,2.1-2.336,4.321-3.5,6.774s-2.1,4.905-3.037,7.241c-.818,2.453-1.518,4.672-2.1,6.891a22.22,22.22,0,0,0-.818,5.489c0,1.869.584,2.686,1.869,2.686a4.4,4.4,0,0,0,2.92-1.285,42.915,42.915,0,0,0,3.27-3.27c.234-.234.35-.117.7.117a.843.843,0,0,1,.117,1.051,38.585,38.585,0,0,1-5.956,5.723,10.1,10.1,0,0,1-5.606,2.219c-3.153,0-4.789-1.518-4.789-4.438a28.1,28.1,0,0,1,.7-5.723,54.775,54.775,0,0,1,1.986-6.774c.818-2.336,1.869-4.555,2.8-6.774a50.378,50.378,0,0,1,3.153-5.723c-1.051.584-2.1,1.168-3.387,1.986C488.355,66.22,487.3,66.921,486.486,67.739Zm14.6-15.417a.706.706,0,0,1-.934,0,1.987,1.987,0,0,1-.7-1.168,3.712,3.712,0,0,1-.234-1.635,3.233,3.233,0,0,1,.35-1.518,48.6,48.6,0,0,1,4.438-4.789,32.926,32.926,0,0,1,6.073-4.905c.234-.117.35,0,.7.234.234.234.35.467.234.584a41.347,41.347,0,0,0-5.489,6.19A46.542,46.542,0,0,0,501.086,52.322Z" transform="translate(-327.027 -4.109)" fill="#cea900"/><path d="M530.86,58.419c.467.234.584.467.584.7-.117.35-.467.584-1.168.7-1.4,0-2.92,0-4.672.117s-3.621.234-5.606.35a106.614,106.614,0,0,0-4.438,12.964,40.008,40.008,0,0,0-1.752,10.278c0,3.037,1.168,4.672,3.5,4.672s5.022-1.985,7.825-6.073a.438.438,0,0,1,.7,0,.846.846,0,0,1,.234.934,22.416,22.416,0,0,1-5.84,6.54,11.182,11.182,0,0,1-6.891,2.8,7.138,7.138,0,0,1-5.256-1.752,6.254,6.254,0,0,1-1.752-4.672A42.789,42.789,0,0,1,508.2,75.121a119.679,119.679,0,0,1,4.905-14.132,51.1,51.1,0,0,0-6.54,1.051q-.7-.175-.35-.7a5.414,5.414,0,0,1,1.168-1.168,8.831,8.831,0,0,1,2.1-1.051,5.939,5.939,0,0,1,2.336-.467h1.051a3.234,3.234,0,0,0,1.051-.117c1.168-2.569,2.453-5.139,3.621-7.592q1.927-3.679,3.854-6.657a12.246,12.246,0,0,1,2.219-1.752,14.284,14.284,0,0,1,2.8-1.168,10.806,10.806,0,0,1,2.219-.467c.584,0,.818.117.7.467-1.518,2.336-3.037,5.022-4.555,7.825-1.518,2.92-2.92,5.956-4.321,9.11,1.752-.117,3.5-.117,5.256-.117A41.425,41.425,0,0,0,530.86,58.419Z" transform="translate(-323.282 -3.666)" fill="#cea900"/><path d="M556.981,62.074c0,5.139-6.891,8.643-20.556,10.628-.117.934-.117,1.869-.234,2.686a21.583,21.583,0,0,0-.117,2.8,8.541,8.541,0,0,0,1.635,5.489c1.051,1.285,2.8,1.869,5.139,1.869a10.053,10.053,0,0,0,5.256-1.518,11.579,11.579,0,0,0,4.321-3.854c.35-.234.584-.117.818.234a1.135,1.135,0,0,1,.117,1.051,26.813,26.813,0,0,1-6.891,6.073,17.375,17.375,0,0,1-8.876,2.569c-3.153,0-5.489-.818-6.891-2.336a10.008,10.008,0,0,1-2.1-6.774,24.365,24.365,0,0,1,1.752-8.76,36.508,36.508,0,0,1,4.555-8.409,24.8,24.8,0,0,1,6.424-6.19,12.663,12.663,0,0,1,7.241-2.336,8.434,8.434,0,0,1,5.956,2.1A6.222,6.222,0,0,1,556.981,62.074Zm-11.8-3.27a6.523,6.523,0,0,0-5.372,2.92c-1.518,1.986-2.569,4.905-3.037,8.993,4.321-.467,7.592-1.285,9.694-2.569q3.153-1.752,3.153-4.555a5.091,5.091,0,0,0-1.168-3.5A6.046,6.046,0,0,0,545.185,58.8Z" transform="translate(-319.503 -1.247)" fill="#cea900"/></g></svg>