<svg xmlns="http://www.w3.org/2000/svg" width="116.9" height="70"><g fill="#cea900"><path d="M47 26a68.7 68.7 0 0 1-23 15.5 29.3 29.3 0 0 1-9.6 1.8c-5.4 0-9.2-.8-11.3-2.4-2-1.6-3.1-3.3-3.1-5.4a8.2 8.2 0 0 1 1.1-4.2c1.7-3.1 6.3-5.2 9.3-6.5s8.3-3.1 17.5-3.1c4.6 0 13.8.6 19 1.8l5.4-5.6 5-5.2a90.6 90.6 0 0 1 8.9-8.2C70 1.5 73.5 0 76.7 0a11 11 0 0 1 4 .7 7.8 7.8 0 0 1 2.1 1l.4.5-.1.2c-.1.1-.2 0-.4-.1-.7-.8-2.2-1.1-4.4-1.1-3.7 0-7.6 1.6-11.7 4.8-3 2.4-5.4 4.6-7.4 6.6l-6.1 6.2C51 21 49 23.2 48.3 24a50 50 0 0 0 6.8.9m-35.7 1.1C9.3 28 3.4 33 4 37.3a6.5 6.5 0 0 0 2.2 3.5c1.4 1 3.6 1.5 6.9 1.5a38.4 38.4 0 0 0 10.5-1.6c5.7-1.8 13.1-7.1 21-14.8-1.3-.1-12.6-2.3-25.2 0zM60 46l.1.2c0 .2-.2.3-.4.1-3.5-2.4-5.2-6-5.2-10.7a19.4 19.4 0 0 1 1.1-6.3 38.7 38.7 0 0 1 4.2-8 82.6 82.6 0 0 1 5.8-8L71 6.8l2.8-3.2c.4-.7.8-.6 1 .3a5.7 5.7 0 0 1 0 1 1.7 1.7 0 0 1-.3 1A92.4 92.4 0 0 0 67.3 16a87.6 87.6 0 0 0-8.4 17.7 23.5 23.5 0 0 0-1 6.6 7.9 7.9 0 0 0 2.1 5.4z"/><path d="M55.1 24.8c7.6-1 10.2-4.8 15-1.5 10 6.9 4.7 25.8 1.5 34.9a106.4 106.4 0 0 1 22-32.6c1.5-.7-2.5 4.9-2.7 5.3-1.5 3.2-1.3 7.6-1.1 11 .2 7.3 1.9 14.8 1 22.2 5.4-7.7 13.6-13.2 18.2-21.4 2.2-3.9 4-8.7 3.3-13.2-.2-1.5-.2-3.5-2-4-2-.6-3.3 3.1-3.9 2.7s5.9-11.3 9.6-2.9c2.7 6-1.4 14.7-5.3 19-7.4 8.5-7.4 8.5-11.9 13-1.8 2-11.9 17-11.9 10.5.4-5.8-.3-11.7-.8-17.6-.3-4.7-1.6-11.2.8-15.6A154.2 154.2 0 0 0 70.6 63c-.7 1.8-4.3 11.2-3.8 4.9.3-5.5 3.8-11.4 4.5-17 1.1-7.5 3-22.6-6.2-25.8-4.2-1.5-5.3 4.4-19.3.9"/></g></svg>